# AST/ASF file generated using VICON BodyLanguage
# -----------------------------------------------
:version 1.10
:name VICON
:units
  mass 1.0
  length 0.45
  angle deg
:documentation
   .ast/.asf automatically generated from VICON data using
   VICON BodyBuilder and BodyLanguage model FoxedUp or BRILLIANT.MOD
:root
   order TX TY TZ RX RY RZ
   axis XYZ
   position 0 0 0  
   orientation 0 0 0 
:bonedata
  begin
     id 1 
     name lhipjoint
     direction 0.650112 -0.723553 0.232005 
     length 2.45805 
     axis 0 0 0  XYZ
  end
  begin
     id 2 
     name lfemur
     direction 0.34202 -0.939693 0  
     length 7.00073  
     axis 0 0 20  XYZ
    dof rx ry rz
    limits (-160.0 20.0)
           (-70.0 70.0)
           (-60.0 70.0)
  end
  begin
     id 3 
     name ltibia
     direction 0.34202 -0.939693 0   
     length 7.8748   
     axis 0 0 20   XYZ
    dof rx
    limits (-10.0 170.0)
  end
  begin
     id 4 
     name lfoot
     direction 0.0542825 -0.14914 0.987325   
     length 1.75978   
     axis -90 7.62852e-016 20   XYZ
    dof rx rz
    limits (-45.0 90.0)
           (-70.0 20.0)
  end
  begin
     id 5 
     name ltoes
     direction 1.53509e-011 -4.21906e-011 1   
     length 0.893912   
     axis -90 7.62852e-016 20   XYZ
    dof rx
    limits (-90.0 20.0)
  end
  begin
     id 6 
     name rhipjoint
     direction -0.637897 -0.733345 0.235145   
     length 2.42522  
     axis 0 0 0  XYZ 
  end
  begin
     id 7 
     name rfemur
     direction -0.34202 -0.939693 0   
     length 7.02549   
     axis 0 0 -20   XYZ
    dof rx ry rz
    limits (-160.0 20.0)
           (-70.0 70.0)
           (-70.0 60.0)
  end
  begin
     id 8 
     name rtibia
     direction -0.34202 -0.939693 0   
     length 7.71512   
     axis 0 0 -20   XYZ
    dof rx
    limits (-10.0 170.0)
 end
 begin
     id 9 
     name rfoot
     direction -0.0822618 -0.226012 0.970645   
     length 1.90014  
     axis -90 -7.62852e-016 -20   XYZ
    dof rx rz
    limits (-45.0 90.0)
           (-20.0 70.0)
  end
  begin
     id 10 
     name rtoes
     direction -1.53542e-011 -4.21872e-011 1   
     length 0.957341   
     axis -90 -7.62852e-016 -20   XYZ
    dof rx
    limits (-90.0 20.0)
  end
  begin
     id 11 
     name lowerback
     direction -0.0022947 0.999774 -0.0211557   
     length 1.89909   
     axis 0 0 0   XYZ
    dof rx ry rz
    limits (-20.0 45.0)
           (-30.0 30.0)
           (-30.0 30.0)
  end
  begin
     id 12 
     name upperback
     direction 0.0107737 0.998635 0.0511027   
     length 1.8853   
     axis 0 0 0   XYZ
    dof rx ry rz
    limits (-20.0 45.0)
           (-30.0 30.0)
           (-30.0 30.0)
  end
  begin
     id 13 
     name thorax
     direction 0.011824 0.998136 0.0598754   
     length 1.88911   
     axis 0 0 0   XYZ
    dof rx ry rz
    limits (-20.0 45.0)
           (-30.0 30.0)
           (-30.0 30.0)
  end
  begin
     id 14 
     name lowerneck
     direction -0.0685355 0.990319 0.120714   
     length 1.91222   
     axis 0 0 0   XYZ
    dof rx ry rz
    limits (-20.0 45.0)
           (-30.0 30.0)
           (-30.0 30.0)
  end
  begin
     id 15 
     name upperneck
     direction 0.0886204 0.955665 -0.280805   
     length 1.92526   
     axis 0 0 0   XYZ
    dof rx ry rz
    limits (-20.0 45.0)
           (-30.0 30.0)
           (-30.0 30.0)
  end
  begin
     id 16
     name head
     direction 0.0233423 0.993502 -0.111393  
     length 1.96056  
     axis 0 0 0   XYZ
    dof rx ry rz
    limits (-20.0 45.0)
           (-30.0 30.0)
           (-30.0 30.0)
  end
  begin
     id 17 
     name lclavicle
     direction 0.941873 0.32922 0.0670041  
     length 3.31705  
     axis 0 0 0   XYZ
    dof ry rz
    limits (-20.0 10.0)
           (0.0 20.0)
  end
  begin
     id 18 
     name lhumerus
     direction 1 -4.4898e-011 3.38707e-028   
     length 5.29277   
     axis 180 -30 -90   XYZ
    dof rx ry rz
    limits (-60.0 90.0)
           (-90.0 90.0)
           (-90.0 90.0)
  end
  begin
     id 19
     name lradius
     direction 1 -4.48952e-011 1.63213e-028   
     length 2.85226   
     axis 180 -30 -90   XYZ
    dof rx
    limits (-10.0 170.0)
  end
  begin
     id 20
     name lwrist
     direction 1 -4.49001e-011 1.27856e-027   
     length 1.42613   
     axis -1.61767e-015 90 90   XYZ
    dof ry
    limits (-180.0 0.0)
 end
  begin
     id 21 
     name lhand
     direction 1 -4.48976e-011 2.55931e-027   
     length 0.602097   
     axis -1.63363e-015 90 90   XYZ
    dof rx rz
    limits (-90.0 90.0)
           (-45.0 45.0)
  end
  begin
     id 22 
     name lfingers
     direction 1 -4.48986e-011 5.11684e-027   
     length 0.485426   
     axis -3.26723e-015 90 90   XYZ
    dof rx
    limits (0.0 90.0)
  end
  begin
     id 23
     name lthumb
     direction 0.707107 -6.34915e-011 0.707107   
     length 0.696978   
     axis -90 45 -2.25915e-014   XYZ
    dof rx rz
    limits (-45.0 45.0)
           (-45.0 45.0)
  end
  begin
     id 24 
     name rclavicle
     direction -0.939974 0.327078 0.0973096   
     length 3.10337  
     axis 0 0 0   XYZ 
    dof ry rz
    limits (-10.0 20.0)
           (-20.0 0.0)
  end
  begin
     id 25 
     name rhumerus
     direction -1 -4.48975e-011 1.83745e-027  
     length 5.13304   
     axis 180 30 90   XYZ
    dof rx ry rz
    limits (-90.0 60.0)
           (-90.0 90.0)
           (-90.0 90.0)
  end
  begin
     id 26 
     name rradius
     direction -1 -4.48977e-011 7.1775e-029   
     length 2.74305   
     axis 180 30 90   XYZ
    dof rx
    limits (-10.0 170.0)
  end
  begin
     id 27 
     name rwrist
     direction -1 -4.48977e-011 1.27963e-027   
     length 1.37152   
     axis -1.61767e-015 -90 -90   XYZ
    dof ry
    limits (-180.0 0.0)
  end
  begin
     id 28
     name rhand
     direction -1 -4.4888e-011 2.56782e-027   
     length 0.767976   
     axis -1.63363e-015 -90 -90   XYZ
    dof rx rz
    limits (-90.0 90.0)
           (-45.0 45.0)
  end
  begin
     id 29
     name rfingers
     direction -1 -4.48947e-011 5.12384e-027   
     length 0.619162   
     axis -3.26723e-015 -90 -90   XYZ
    dof rx
    limits (0.0 90.0)
  end
  begin
     id 30
     name rthumb
     direction -0.707107 -6.34857e-011 0.707107   
     length 0.888997   
     axis -90 -45 2.25915e-014   XYZ
    dof rx rz
    limits (-45.0 45.0)
           (-45.0 45.0)
  end
:hierarchy
  begin
    root lhipjoint rhipjoint lowerback
    lhipjoint lfemur
    lfemur ltibia
    ltibia lfoot
    lfoot ltoes
    rhipjoint rfemur
    rfemur rtibia
    rtibia rfoot
    rfoot rtoes
    lowerback upperback
    upperback thorax
    thorax lowerneck lclavicle rclavicle
    lowerneck upperneck
    upperneck head
    lclavicle lhumerus
    lhumerus lradius
    lradius lwrist
    lwrist lhand lthumb
    lhand lfingers
    rclavicle rhumerus
    rhumerus rradius
    rradius rwrist
    rwrist rhand rthumb
    rhand rfingers
  end

#!OML:ASF F:\VICON\USERDATA\INSTALL\rory3\rory3.ASF
:FULLY-SPECIFIED
:DEGREES
1207
root 0.120328 16.5359 -2.0449 10.6947 2.73117 4.06361
lowerback 23.8756 -1.4497 2.82452
upperback 12.806 -1.14574 4.48872
thorax 0.870795 -0.585037 3.49466
lowerneck -9.40182 -4.19186 -13.8994
upperneck -6.61386 -3.85941 25.2485
head 0.681043 -1.6264 10.2291
rclavicle 3.81667e-014 1.59028e-015
rhumerus 45.412 31.1639 -37.5664
rradius 59.1714
rwrist 17.4832
rhand -8.66025 8.45821
rfingers 7.12502
rthumb 17.2735 -20.7941
lclavicle 3.81667e-014 1.59028e-015
lhumerus 58.3501 -32.0632 17.8285
lradius 52.4109
lwrist 2.46302
lhand 8.85759 25.2399
lfingers 7.12502
lthumb 34.042 52.0143
rfemur -36.1668 0.305802 12.7682
rtibia 47.3915
rfoot -21.7798 -5.68328
rtoes -21.5051
lfemur -35.7482 -0.265245 -22.1118
ltibia 43.1818
lfoot -16.8597 -4.70551
ltoes -17.5846
1208
root 0.12726 16.5349 -2.03877 10.6056 2.67578 4.39037
lowerback 23.8597 -1.41969 3.03203
upperback 12.8129 -1.06416 4.65088
thorax 0.885259 -0.539458 3.53454
lowerneck -8.88765 -4.63475 -14.0329
upperneck -7.13072 -4.42858 25.4232
head 0.578771 -1.96232 10.29
rclavicle -1.59028e-014 4.77083e-015
rhumerus 45.265 31.0091 -37.488
rradius 59.0313
rwrist 17.3785
rhand -8.74551 8.53941
rfingers 7.12502
rthumb 17.1914 -20.7201
lclavicle -1.59028e-014 4.77083e-015
lhumerus 58.4138 -31.8359 17.3583
lradius 52.7064
lwrist 2.99732
lhand 8.93601 25.2766
lfingers 7.12502
lthumb 34.1165 52.0345
rfemur -36.1082 0.277349 12.3679
rtibia 47.5546
rfoot -21.9317 -5.62541
rtoes -21.3602
lfemur -35.5397 -0.257108 -22.5113
ltibia 43.0794
lfoot -16.7805 -4.79394
ltoes -16.7977
1209
root 0.134992 16.5315 -2.03196 10.532 2.59055 4.71903
lowerback 23.8283 -1.41194 3.16251
upperback 12.7902 -1.02573 4.81666
thorax 0.877042 -0.519759 3.63171
lowerneck -8.63662 -4.95993 -13.9884
upperneck -7.22298 -4.89907 25.3931
head 0.604018 -2.21837 10.2412
rclavicle 1.43125e-014 1.27222e-014
rhumerus 45.2157 30.9964 -37.3828
rradius 58.8976
rwrist 17.2987
rhand -8.81382 8.39944
rfingers 7.12502
rthumb 17.1256 -20.8658
lclavicle 1.43125e-014 1.27222e-014
lhumerus 58.289 -31.6271 16.8575
lradius 53.0468
lwrist 3.50819
lhand 9.05461 25.3029
lfingers 7.12502
lthumb 34.2291 52.0355
rfemur -36.0597 0.236829 11.9735
rtibia 47.6723
rfoot -21.9965 -5.62356
rtoes -21.6207
lfemur -35.3315 -0.256427 -22.9114
ltibia 42.9563
lfoot -16.7954 -4.82088
ltoes -16.7529
1210
root 0.145082 16.5285 -2.02367 10.4189 2.47161 4.97182
lowerback 24.0226 -1.41385 3.28711
upperback 12.6511 -0.97755 5.04462
thorax 0.63179 -0.498771 3.80457
lowerneck -8.57603 -5.26101 -14.1256
upperneck -6.9482 -5.36562 25.39
head 0.769659 -2.44065 10.2274
rclavicle 0 4.77083e-015
rhumerus 45.1068 31.1756 -37.2886
rradius 58.7666
rwrist 17.2871
rhand -8.89747 8.37878
rfingers 7.12502
rthumb 17.0451 -20.8934
lclavicle 0 4.77083e-015
lhumerus 58.0402 -31.5398 16.4086
lradius 53.3297
lwrist 4.1097
lhand 9.16007 25.419
lfingers 7.12502
lthumb 34.3293 52.1291
rfemur -35.9594 0.230876 11.6438
rtibia 47.7481
rfoot -22.0384 -5.55645
rtoes -21.5884
lfemur -35.082 -0.303425 -23.2217
ltibia 42.8152
lfoot -16.7783 -4.75075
ltoes -16.6917
1211
root 0.156914 16.5333 -2.01309 10.1649 2.35979 5.10776
lowerback 24.4391 -1.42463 3.53643
upperback 12.509 -0.895987 5.32997
thorax 0.27624 -0.457978 3.96825
lowerneck -8.74984 -5.62669 -14.5293
upperneck -6.44916 -5.91465 25.5777
head 1.0762 -2.67475 10.3171
rclavicle -4.77083e-015 3.18055e-015
rhumerus 44.8639 31.3306 -37.2777
rradius 58.6547
rwrist 17.3955
rhand -8.81585 8.40682
rfingers 7.12502
rthumb 17.1237 -20.8586
lclavicle -4.77083e-015 3.18055e-015
lhumerus 57.8629 -31.5067 15.9421
lradius 53.588
lwrist 4.83968
lhand 9.03346 25.5993
lfingers 7.12502
lthumb 34.209 52.3365
rfemur -35.6676 0.326214 11.4219
rtibia 47.7764
rfoot -22.1501 -5.48019
rtoes -21.2333
lfemur -34.6647 -0.375922 -23.4001
ltibia 42.6506
lfoot -16.7234 -4.6921
ltoes -16.2983
